<mxfile host="app.diagrams.net" modified="2023-02-16T02:45:58.171Z" agent="5.0 (Windows NT 10.0; Win64; x64) AppleWebKit/537.36 (KHTML, like Gecko) Chrome/110.0.0.0 Safari/537.36" etag="Peo3M8r_9c0D7FsN4eYv" version="20.8.20" type="github">
  <diagram name="Page-1" id="nI1nvRkX7SopuIC9oGd2">
    <mxGraphModel dx="1359" dy="754" grid="1" gridSize="10" guides="1" tooltips="1" connect="1" arrows="1" fold="1" page="1" pageScale="1" pageWidth="827" pageHeight="1169" math="0" shadow="0">
      <root>
        <mxCell id="0" />
        <mxCell id="1" parent="0" />
        <mxCell id="5PFMSeBPYbZeD1rcCoT7-1" value="" style="dashed=0;outlineConnect=0;html=1;align=center;labelPosition=center;verticalLabelPosition=bottom;verticalAlign=top;shape=mxgraph.weblogos.chrome" vertex="1" parent="1">
          <mxGeometry x="93.75" y="150" width="74.8" height="75.4" as="geometry" />
        </mxCell>
        <mxCell id="5PFMSeBPYbZeD1rcCoT7-2" value="" style="endArrow=classic;html=1;rounded=0;" edge="1" parent="1">
          <mxGeometry width="50" height="50" relative="1" as="geometry">
            <mxPoint x="130.65" y="250" as="sourcePoint" />
            <mxPoint x="130.65" y="330" as="targetPoint" />
          </mxGeometry>
        </mxCell>
        <mxCell id="5PFMSeBPYbZeD1rcCoT7-3" value="" style="shape=image;html=1;verticalAlign=top;verticalLabelPosition=bottom;labelBackgroundColor=#ffffff;imageAspect=0;aspect=fixed;image=https://cdn1.iconfinder.com/data/icons/unicons-line-vol-5/24/react-128.png" vertex="1" parent="1">
          <mxGeometry x="80" y="350" width="102.3" height="102.3" as="geometry" />
        </mxCell>
        <mxCell id="5PFMSeBPYbZeD1rcCoT7-4" value="Amazon S3" style="sketch=0;outlineConnect=0;fontColor=#232F3E;gradientColor=none;strokeColor=#ffffff;fillColor=#232F3E;dashed=0;verticalLabelPosition=middle;verticalAlign=bottom;align=center;html=1;whiteSpace=wrap;fontSize=10;fontStyle=1;spacing=3;shape=mxgraph.aws4.productIcon;prIcon=mxgraph.aws4.s3;" vertex="1" parent="1">
          <mxGeometry x="623.75" y="585" width="80" height="100" as="geometry" />
        </mxCell>
        <mxCell id="5PFMSeBPYbZeD1rcCoT7-5" value="" style="endArrow=classic;html=1;rounded=0;" edge="1" parent="1">
          <mxGeometry width="50" height="50" relative="1" as="geometry">
            <mxPoint x="213.75" y="400" as="sourcePoint" />
            <mxPoint x="293.75" y="400" as="targetPoint" />
          </mxGeometry>
        </mxCell>
        <mxCell id="5PFMSeBPYbZeD1rcCoT7-6" value="Amazon Route 53" style="sketch=0;outlineConnect=0;fontColor=#232F3E;gradientColor=none;strokeColor=#ffffff;fillColor=#232F3E;dashed=0;verticalLabelPosition=middle;verticalAlign=bottom;align=center;html=1;whiteSpace=wrap;fontSize=10;fontStyle=1;spacing=3;shape=mxgraph.aws4.productIcon;prIcon=mxgraph.aws4.route_53;" vertex="1" parent="1">
          <mxGeometry x="333.75" y="360" width="80" height="110" as="geometry" />
        </mxCell>
        <mxCell id="5PFMSeBPYbZeD1rcCoT7-7" value="" style="endArrow=classic;html=1;rounded=0;" edge="1" parent="1">
          <mxGeometry width="50" height="50" relative="1" as="geometry">
            <mxPoint x="473.75" y="400" as="sourcePoint" />
            <mxPoint x="583.75" y="400" as="targetPoint" />
          </mxGeometry>
        </mxCell>
        <mxCell id="5PFMSeBPYbZeD1rcCoT7-8" value="" style="endArrow=classic;html=1;rounded=0;" edge="1" parent="1">
          <mxGeometry width="50" height="50" relative="1" as="geometry">
            <mxPoint x="663.25" y="490" as="sourcePoint" />
            <mxPoint x="663.25" y="560" as="targetPoint" />
          </mxGeometry>
        </mxCell>
        <mxCell id="5PFMSeBPYbZeD1rcCoT7-9" value="Amazon Cloudfront" style="sketch=0;outlineConnect=0;fontColor=#232F3E;gradientColor=none;strokeColor=#ffffff;fillColor=#232F3E;dashed=0;verticalLabelPosition=middle;verticalAlign=bottom;align=center;html=1;whiteSpace=wrap;fontSize=10;fontStyle=1;spacing=3;shape=mxgraph.aws4.productIcon;prIcon=mxgraph.aws4.cloudfront;" vertex="1" parent="1">
          <mxGeometry x="623.75" y="360" width="80" height="110" as="geometry" />
        </mxCell>
      </root>
    </mxGraphModel>
  </diagram>
</mxfile>
